<svg xmlns="http://www.w3.org/2000/svg" viewBox="0 0 48 48">
    <path fill="#fff" d="M32.065,23.939c-0.024-2.483,1.079-4.373,3.313-5.751c-1.284-1.832-3.24-2.843-5.816-3.035 c-2.431-0.185-5.088,1.417-6.039,1.417c-1.003,0-3.349-1.342-5.208-1.342c-4.135,0.063-8.143,3.34-8.143,9.98 c0,1.938,0.358,3.937,1.076,5.997c0.957,2.767,4.411,9.559,8.004,9.47c1.89-0.037,3.219-1.344,5.673-1.344 c2.357,0,3.564,1.344,5.672,1.344c3.628-0.052,6.721-6.221,7.632-8.991C33.977,31.684,32.097,27.312,32.065,23.939z"/>
    <path fill="#fff" d="M28.776,11.766c1.274-1.489,2.233-3.528,1.988-5.766c-2.074,0.123-4.48,1.371-5.878,2.96 c-1.273,1.438-2.335,3.477-1.937,5.485C25.098,14.616,27.386,13.375,28.776,11.766z"/>
</svg> 